<mxfile host="65bd71144e">
    <diagram id="rz2o2xeyBaLNGLrqgSCY" name="Page-1">
        <mxGraphModel dx="642" dy="1147" grid="1" gridSize="10" guides="1" tooltips="1" connect="1" arrows="1" fold="1" page="1" pageScale="1" pageWidth="827" pageHeight="1169" math="0" shadow="0">
            <root>
                <mxCell id="0"/>
                <mxCell id="1" parent="0"/>
                <mxCell id="42" style="edgeStyle=elbowEdgeStyle;html=1;exitX=1;exitY=0.5;exitDx=0;exitDy=0;entryX=0;entryY=0.5;entryDx=0;entryDy=0;strokeWidth=9;endArrow=none;endFill=0;fillColor=#d80073;strokeColor=#A50040;" edge="1" parent="1" source="5" target="41">
                    <mxGeometry relative="1" as="geometry"/>
                </mxCell>
                <mxCell id="5" value="" style="ellipse;whiteSpace=wrap;html=1;aspect=fixed;fillColor=#d80073;fontColor=#ffffff;strokeColor=#A50040;strokeWidth=9;" vertex="1" parent="1">
                    <mxGeometry x="315" y="650" width="35" height="35" as="geometry"/>
                </mxCell>
                <mxCell id="6" value="main" style="text;html=1;strokeColor=none;fillColor=none;align=center;verticalAlign=middle;whiteSpace=wrap;rounded=0;strokeWidth=9;fontSize=17;labelBackgroundColor=default;" vertex="1" parent="1">
                    <mxGeometry x="110" y="652.5" width="60" height="30" as="geometry"/>
                </mxCell>
                <mxCell id="12" value="0.0.0" style="dashed=0;html=1;fillColor=#F0F2F5;strokeColor=none;align=center;rounded=1;arcSize=10;fontColor=#596780;fontStyle=1;fontSize=17;shadow=0;strokeWidth=9;fontFamily=Helvetica;" vertex="1" parent="1">
                    <mxGeometry x="302.5" y="705" width="60" height="20" as="geometry"/>
                </mxCell>
                <mxCell id="17" value="feature A" style="text;html=1;strokeColor=none;fillColor=none;align=center;verticalAlign=middle;whiteSpace=wrap;rounded=0;strokeWidth=9;fontSize=17;labelBackgroundColor=default;" vertex="1" parent="1">
                    <mxGeometry x="130" y="82.5" width="80" height="30" as="geometry"/>
                </mxCell>
                <mxCell id="20" value="fix A" style="text;html=1;strokeColor=none;fillColor=none;align=center;verticalAlign=middle;whiteSpace=wrap;rounded=0;strokeWidth=9;fontSize=17;labelBackgroundColor=default;" vertex="1" parent="1">
                    <mxGeometry x="160" y="165" width="60" height="30" as="geometry"/>
                </mxCell>
                <mxCell id="27" style="edgeStyle=elbowEdgeStyle;html=1;exitX=0.5;exitY=0;exitDx=0;exitDy=0;entryX=0;entryY=0.5;entryDx=0;entryDy=0;strokeWidth=9;endArrow=classic;endFill=1;fillColor=#6a00ff;strokeColor=#3700CC;" edge="1" parent="1" source="22" target="19">
                    <mxGeometry relative="1" as="geometry">
                        <mxPoint x="245.10000000000014" y="156.86" as="targetPoint"/>
                        <Array as="points">
                            <mxPoint x="238" y="180"/>
                        </Array>
                    </mxGeometry>
                </mxCell>
                <mxCell id="28" style="edgeStyle=elbowEdgeStyle;html=1;exitX=0.5;exitY=0;exitDx=0;exitDy=0;entryX=0;entryY=0.5;entryDx=0;entryDy=0;strokeWidth=9;endArrow=classic;endFill=1;fillColor=#6a00ff;strokeColor=#3700CC;ignoreEdge=0;startFill=1;orthogonal=0;fixDash=0;rounded=1;" edge="1" parent="1" source="22" target="16">
                    <mxGeometry relative="1" as="geometry">
                        <Array as="points">
                            <mxPoint x="238" y="160"/>
                        </Array>
                    </mxGeometry>
                </mxCell>
                <mxCell id="36" style="edgeStyle=elbowEdgeStyle;html=1;exitX=1;exitY=0.5;exitDx=0;exitDy=0;entryX=0;entryY=0.5;entryDx=0;entryDy=0;strokeWidth=9;endArrow=none;endFill=0;fillColor=#008a00;strokeColor=#005700;" edge="1" parent="1" source="22" target="35">
                    <mxGeometry relative="1" as="geometry"/>
                </mxCell>
                <mxCell id="22" value="" style="ellipse;whiteSpace=wrap;html=1;aspect=fixed;fillColor=#008a00;fontColor=#ffffff;strokeColor=#005700;strokeWidth=9;" vertex="1" parent="1">
                    <mxGeometry x="220" y="400" width="35" height="35" as="geometry"/>
                </mxCell>
                <mxCell id="23" value="dev" style="text;html=1;strokeColor=none;fillColor=none;align=center;verticalAlign=middle;whiteSpace=wrap;rounded=0;strokeWidth=9;fontSize=17;labelBackgroundColor=default;" vertex="1" parent="1">
                    <mxGeometry x="110" y="402.5" width="60" height="30" as="geometry"/>
                </mxCell>
                <mxCell id="24" value="" style="endArrow=none;html=1;edgeStyle=elbowEdgeStyle;entryX=0;entryY=0.5;entryDx=0;entryDy=0;endFill=0;strokeWidth=9;fillColor=#008a00;strokeColor=#005700;" edge="1" parent="1" source="22" target="5">
                    <mxGeometry width="50" height="50" relative="1" as="geometry">
                        <mxPoint x="370" y="530" as="sourcePoint"/>
                        <mxPoint x="420" y="480" as="targetPoint"/>
                    </mxGeometry>
                </mxCell>
                <mxCell id="25" value="" style="endArrow=none;html=1;edgeStyle=elbowEdgeStyle;entryX=0;entryY=0.5;entryDx=0;entryDy=0;endFill=0;strokeWidth=9;exitX=1;exitY=0.5;exitDx=0;exitDy=0;fillColor=#d80073;strokeColor=#A50040;" edge="1" parent="1" source="6" target="5">
                    <mxGeometry width="50" height="50" relative="1" as="geometry">
                        <mxPoint x="265" y="547.5" as="sourcePoint"/>
                        <mxPoint x="325.00000000000034" y="677.5" as="targetPoint"/>
                    </mxGeometry>
                </mxCell>
                <mxCell id="26" value="" style="endArrow=none;html=1;edgeStyle=elbowEdgeStyle;endFill=0;strokeWidth=9;exitX=1;exitY=0.5;exitDx=0;exitDy=0;entryX=0;entryY=0.5;entryDx=0;entryDy=0;fillColor=#008a00;strokeColor=#005700;" edge="1" parent="1" source="23" target="22">
                    <mxGeometry width="50" height="50" relative="1" as="geometry">
                        <mxPoint x="135" y="480" as="sourcePoint"/>
                        <mxPoint x="200" y="418" as="targetPoint"/>
                    </mxGeometry>
                </mxCell>
                <mxCell id="31" style="edgeStyle=elbowEdgeStyle;html=1;exitX=1;exitY=0.5;exitDx=0;exitDy=0;entryX=0;entryY=0.5;entryDx=0;entryDy=0;strokeWidth=9;endArrow=none;endFill=0;fillColor=#6a00ff;strokeColor=#3700CC;" edge="1" parent="1" source="19" target="29">
                    <mxGeometry relative="1" as="geometry"/>
                </mxCell>
                <mxCell id="19" value="" style="ellipse;whiteSpace=wrap;html=1;aspect=fixed;fillColor=#6a00ff;fontColor=#ffffff;strokeColor=#3700CC;strokeWidth=9;" vertex="1" parent="1">
                    <mxGeometry x="315" y="160" width="35" height="35" as="geometry"/>
                </mxCell>
                <mxCell id="34" style="edgeStyle=elbowEdgeStyle;html=1;exitX=1;exitY=0.5;exitDx=0;exitDy=0;entryX=0;entryY=0.5;entryDx=0;entryDy=0;strokeWidth=9;endArrow=none;endFill=0;fillColor=#6a00ff;strokeColor=#3700CC;" edge="1" parent="1" source="16" target="33">
                    <mxGeometry relative="1" as="geometry"/>
                </mxCell>
                <mxCell id="16" value="" style="ellipse;whiteSpace=wrap;html=1;aspect=fixed;fillColor=#6a00ff;fontColor=#ffffff;strokeColor=#3700CC;strokeWidth=9;" vertex="1" parent="1">
                    <mxGeometry x="379" y="80" width="35" height="35" as="geometry"/>
                </mxCell>
                <mxCell id="39" style="edgeStyle=elbowEdgeStyle;html=1;exitX=1;exitY=0.5;exitDx=0;exitDy=0;entryX=0.492;entryY=-0.031;entryDx=0;entryDy=0;entryPerimeter=0;strokeWidth=9;endArrow=none;endFill=0;fillColor=#6a00ff;strokeColor=#3700CC;" edge="1" parent="1" source="29" target="38">
                    <mxGeometry relative="1" as="geometry">
                        <Array as="points">
                            <mxPoint x="535" y="190"/>
                            <mxPoint x="520" y="180"/>
                        </Array>
                    </mxGeometry>
                </mxCell>
                <mxCell id="29" value="" style="ellipse;whiteSpace=wrap;html=1;aspect=fixed;fillColor=#6a00ff;fontColor=#ffffff;strokeColor=#3700CC;strokeWidth=9;" vertex="1" parent="1">
                    <mxGeometry x="440" y="160" width="35" height="35" as="geometry"/>
                </mxCell>
                <mxCell id="48" style="edgeStyle=elbowEdgeStyle;html=1;exitX=1;exitY=0.5;exitDx=0;exitDy=0;entryX=0;entryY=0.5;entryDx=0;entryDy=0;strokeWidth=9;endArrow=none;endFill=0;fillColor=#6a00ff;strokeColor=#3700CC;" edge="1" parent="1" source="33" target="47">
                    <mxGeometry relative="1" as="geometry"/>
                </mxCell>
                <mxCell id="33" value="" style="ellipse;whiteSpace=wrap;html=1;aspect=fixed;fillColor=#6a00ff;fontColor=#ffffff;strokeColor=#3700CC;strokeWidth=9;" vertex="1" parent="1">
                    <mxGeometry x="510" y="80" width="35" height="35" as="geometry"/>
                </mxCell>
                <mxCell id="49" style="edgeStyle=elbowEdgeStyle;html=1;exitX=1;exitY=0.5;exitDx=0;exitDy=0;entryX=0.5;entryY=1;entryDx=0;entryDy=0;strokeWidth=9;endArrow=classic;endFill=1;fillColor=#6a00ff;strokeColor=#3700CC;" edge="1" parent="1" source="35" target="47">
                    <mxGeometry relative="1" as="geometry">
                        <Array as="points">
                            <mxPoint x="658" y="260"/>
                        </Array>
                    </mxGeometry>
                </mxCell>
                <mxCell id="54" style="edgeStyle=elbowEdgeStyle;html=1;exitX=1;exitY=0.5;exitDx=0;exitDy=0;entryX=0;entryY=0.5;entryDx=0;entryDy=0;strokeWidth=9;endArrow=classic;endFill=1;fillColor=#6a00ff;strokeColor=#3700CC;" edge="1" parent="1" source="35" target="53">
                    <mxGeometry relative="1" as="geometry">
                        <Array as="points">
                            <mxPoint x="760" y="250"/>
                            <mxPoint x="730" y="280"/>
                            <mxPoint x="750" y="210"/>
                            <mxPoint x="810" y="240"/>
                            <mxPoint x="770" y="270"/>
                            <mxPoint x="810" y="280"/>
                        </Array>
                    </mxGeometry>
                </mxCell>
                <mxCell id="58" style="edgeStyle=elbowEdgeStyle;html=1;exitX=1;exitY=0.5;exitDx=0;exitDy=0;entryX=0;entryY=0.5;entryDx=0;entryDy=0;strokeWidth=9;endArrow=none;endFill=0;fillColor=#008a00;strokeColor=#005700;" edge="1" parent="1" source="35" target="57">
                    <mxGeometry relative="1" as="geometry"/>
                </mxCell>
                <mxCell id="35" value="" style="ellipse;whiteSpace=wrap;html=1;aspect=fixed;fillColor=#008a00;fontColor=#ffffff;strokeColor=#005700;strokeWidth=9;" vertex="1" parent="1">
                    <mxGeometry x="520" y="400" width="35" height="35" as="geometry"/>
                </mxCell>
                <mxCell id="40" value="" style="edgeStyle=elbowEdgeStyle;html=1;strokeWidth=9;endArrow=classic;endFill=1;exitX=0.508;exitY=0.998;exitDx=0;exitDy=0;exitPerimeter=0;entryX=0.5;entryY=0;entryDx=0;entryDy=0;fillColor=#6a00ff;strokeColor=#3700CC;" edge="1" parent="1" source="38" target="35">
                    <mxGeometry relative="1" as="geometry"/>
                </mxCell>
                <mxCell id="38" value="dev.yml" style="aspect=fixed;html=1;points=[];align=center;image;fontSize=17;image=img/lib/azure2/general/Workflow.svg;strokeWidth=9;" vertex="1" parent="1">
                    <mxGeometry x="502" y="230" width="68" height="70" as="geometry"/>
                </mxCell>
                <mxCell id="46" style="edgeStyle=elbowEdgeStyle;html=1;exitX=0.5;exitY=0;exitDx=0;exitDy=0;entryX=0.478;entryY=1.038;entryDx=0;entryDy=0;entryPerimeter=0;strokeWidth=9;endArrow=none;endFill=0;fillColor=#d80073;strokeColor=#A50040;startArrow=classic;startFill=1;" edge="1" parent="1" source="41" target="44">
                    <mxGeometry relative="1" as="geometry"/>
                </mxCell>
                <mxCell id="67" style="edgeStyle=elbowEdgeStyle;html=1;exitX=1;exitY=0.5;exitDx=0;exitDy=0;entryX=0;entryY=0.5;entryDx=0;entryDy=0;strokeWidth=9;endArrow=none;endFill=0;fillColor=#d80073;strokeColor=#A50040;" edge="1" parent="1" source="41" target="62">
                    <mxGeometry relative="1" as="geometry"/>
                </mxCell>
                <mxCell id="41" value="" style="ellipse;whiteSpace=wrap;html=1;aspect=fixed;fillColor=#d80073;fontColor=#ffffff;strokeColor=#A50040;strokeWidth=9;" vertex="1" parent="1">
                    <mxGeometry x="580" y="650" width="35" height="35" as="geometry"/>
                </mxCell>
                <mxCell id="45" value="" style="edgeStyle=elbowEdgeStyle;html=1;exitX=1;exitY=0.5;exitDx=0;exitDy=0;entryX=0.5;entryY=0;entryDx=0;entryDy=0;strokeWidth=9;endArrow=none;endFill=0;fillColor=#008a00;strokeColor=#005700;" edge="1" parent="1" source="35" target="44">
                    <mxGeometry relative="1" as="geometry">
                        <mxPoint x="554.9999999999982" y="417.5" as="sourcePoint"/>
                        <mxPoint x="597.5" y="580" as="targetPoint"/>
                        <Array as="points">
                            <mxPoint x="598" y="430"/>
                        </Array>
                    </mxGeometry>
                </mxCell>
                <mxCell id="44" value="&lt;div style=&quot;text-align: left; font-size: 17px;&quot;&gt;on opening PR : main.yml&lt;/div&gt;&lt;div style=&quot;text-align: left; font-size: 17px;&quot;&gt;on closing and merging PR: realease.yml&lt;/div&gt;" style="aspect=fixed;html=1;points=[];align=center;image;fontSize=17;image=img/lib/azure2/general/Workflow.svg;strokeWidth=9;" vertex="1" parent="1">
                    <mxGeometry x="563.5" y="460" width="68" height="70" as="geometry"/>
                </mxCell>
                <mxCell id="55" style="edgeStyle=elbowEdgeStyle;html=1;exitX=1;exitY=0.5;exitDx=0;exitDy=0;entryX=0;entryY=0.5;entryDx=0;entryDy=0;strokeWidth=9;endArrow=none;endFill=0;fillColor=#6a00ff;strokeColor=#3700CC;" edge="1" parent="1" source="47" target="51">
                    <mxGeometry relative="1" as="geometry"/>
                </mxCell>
                <mxCell id="47" value="" style="ellipse;whiteSpace=wrap;html=1;aspect=fixed;fillColor=#6a00ff;fontColor=#ffffff;strokeColor=#3700CC;strokeWidth=9;" vertex="1" parent="1">
                    <mxGeometry x="640" y="80" width="35" height="35" as="geometry"/>
                </mxCell>
                <mxCell id="50" value="0.0.1" style="dashed=0;html=1;fillColor=#F0F2F5;strokeColor=none;align=center;rounded=1;arcSize=10;fontColor=#596780;fontStyle=1;fontSize=17;shadow=0;strokeWidth=9;fontFamily=Helvetica;" vertex="1" parent="1">
                    <mxGeometry x="567.5" y="705" width="60" height="20" as="geometry"/>
                </mxCell>
                <mxCell id="70" style="edgeStyle=elbowEdgeStyle;html=1;exitX=0.504;exitY=1.002;exitDx=0;exitDy=0;entryX=0.5;entryY=0;entryDx=0;entryDy=0;strokeWidth=9;endArrow=classic;endFill=1;fillColor=#6a00ff;strokeColor=#3700CC;startArrow=none;exitPerimeter=0;" edge="1" parent="1" source="85" target="69">
                    <mxGeometry relative="1" as="geometry">
                        <Array as="points">
                            <mxPoint x="1168" y="340"/>
                        </Array>
                    </mxGeometry>
                </mxCell>
                <mxCell id="51" value="" style="ellipse;whiteSpace=wrap;html=1;aspect=fixed;fillColor=#6a00ff;fontColor=#ffffff;strokeColor=#3700CC;strokeWidth=9;" vertex="1" parent="1">
                    <mxGeometry x="990" y="80" width="35" height="35" as="geometry"/>
                </mxCell>
                <mxCell id="53" value="" style="ellipse;whiteSpace=wrap;html=1;aspect=fixed;fillColor=#6a00ff;fontColor=#ffffff;strokeColor=#3700CC;strokeWidth=9;" vertex="1" parent="1">
                    <mxGeometry x="827" y="160" width="35" height="35" as="geometry"/>
                </mxCell>
                <mxCell id="56" value="fix B" style="text;html=1;strokeColor=none;fillColor=none;align=center;verticalAlign=middle;whiteSpace=wrap;rounded=0;strokeWidth=9;fontSize=17;labelBackgroundColor=default;" vertex="1" parent="1">
                    <mxGeometry x="700" y="165" width="60" height="30" as="geometry"/>
                </mxCell>
                <mxCell id="71" style="edgeStyle=elbowEdgeStyle;html=1;exitX=1;exitY=0.5;exitDx=0;exitDy=0;entryX=0.5;entryY=1;entryDx=0;entryDy=0;strokeWidth=9;endArrow=classic;endFill=1;fillColor=#6a00ff;strokeColor=#3700CC;" edge="1" parent="1" source="57" target="51">
                    <mxGeometry relative="1" as="geometry">
                        <Array as="points">
                            <mxPoint x="1008" y="270"/>
                        </Array>
                    </mxGeometry>
                </mxCell>
                <mxCell id="72" style="edgeStyle=elbowEdgeStyle;html=1;exitX=1;exitY=0.5;exitDx=0;exitDy=0;entryX=0;entryY=0.5;entryDx=0;entryDy=0;strokeWidth=9;endArrow=none;endFill=0;fillColor=#008a00;strokeColor=#005700;" edge="1" parent="1" source="57" target="69">
                    <mxGeometry relative="1" as="geometry"/>
                </mxCell>
                <mxCell id="57" value="" style="ellipse;whiteSpace=wrap;html=1;aspect=fixed;fillColor=#008a00;fontColor=#ffffff;strokeColor=#005700;strokeWidth=9;" vertex="1" parent="1">
                    <mxGeometry x="900" y="400" width="35" height="35" as="geometry"/>
                </mxCell>
                <mxCell id="61" value="" style="edgeStyle=elbowEdgeStyle;html=1;exitX=1;exitY=0.5;exitDx=0;exitDy=0;entryX=0.5;entryY=0;entryDx=0;entryDy=0;strokeWidth=9;endArrow=none;endFill=0;fillColor=#6a00ff;strokeColor=#3700CC;" edge="1" parent="1" source="53" target="60">
                    <mxGeometry relative="1" as="geometry">
                        <mxPoint x="815" y="157.5" as="sourcePoint"/>
                        <mxPoint x="917.5" y="400" as="targetPoint"/>
                        <Array as="points">
                            <mxPoint x="918" y="190"/>
                        </Array>
                    </mxGeometry>
                </mxCell>
                <mxCell id="66" style="edgeStyle=elbowEdgeStyle;html=1;exitX=0.5;exitY=0;exitDx=0;exitDy=0;strokeWidth=9;endArrow=none;endFill=0;fillColor=#d80073;strokeColor=#A50040;startArrow=classic;startFill=1;" edge="1" parent="1" source="62" target="64">
                    <mxGeometry relative="1" as="geometry"/>
                </mxCell>
                <mxCell id="79" style="edgeStyle=elbowEdgeStyle;html=1;exitX=1;exitY=0.5;exitDx=0;exitDy=0;entryX=0;entryY=0.5;entryDx=0;entryDy=0;strokeWidth=9;startArrow=none;startFill=0;endArrow=none;endFill=0;fillColor=#d80073;strokeColor=#A50040;" edge="1" parent="1" source="62" target="73">
                    <mxGeometry relative="1" as="geometry"/>
                </mxCell>
                <mxCell id="62" value="" style="ellipse;whiteSpace=wrap;html=1;aspect=fixed;fillColor=#d80073;fontColor=#ffffff;strokeColor=#A50040;strokeWidth=9;" vertex="1" parent="1">
                    <mxGeometry x="960" y="650" width="35" height="35" as="geometry"/>
                </mxCell>
                <mxCell id="65" value="" style="edgeStyle=elbowEdgeStyle;html=1;exitX=1;exitY=0.5;exitDx=0;exitDy=0;entryX=0.5;entryY=0;entryDx=0;entryDy=0;strokeWidth=9;endArrow=none;endFill=0;fillColor=#008a00;strokeColor=#005700;" edge="1" parent="1" source="57" target="64">
                    <mxGeometry relative="1" as="geometry">
                        <mxPoint x="935" y="417.5" as="sourcePoint"/>
                        <mxPoint x="977.5" y="580" as="targetPoint"/>
                        <Array as="points">
                            <mxPoint x="978" y="430"/>
                        </Array>
                    </mxGeometry>
                </mxCell>
                <mxCell id="64" value="&lt;div style=&quot;text-align: left; font-size: 17px;&quot;&gt;on opening PR : main.yml&lt;/div&gt;&lt;div style=&quot;text-align: left; font-size: 17px;&quot;&gt;on closing and merging PR: realease.yml&lt;/div&gt;" style="aspect=fixed;html=1;points=[];align=center;image;fontSize=17;image=img/lib/azure2/general/Workflow.svg;strokeWidth=9;" vertex="1" parent="1">
                    <mxGeometry x="943.5" y="460" width="68" height="70" as="geometry"/>
                </mxCell>
                <mxCell id="68" value="0.0.2" style="dashed=0;html=1;fillColor=#F0F2F5;strokeColor=none;align=center;rounded=1;arcSize=10;fontColor=#596780;fontStyle=1;fontSize=17;shadow=0;strokeWidth=9;fontFamily=Helvetica;" vertex="1" parent="1">
                    <mxGeometry x="947.5" y="700" width="60" height="20" as="geometry"/>
                </mxCell>
                <mxCell id="78" style="edgeStyle=elbowEdgeStyle;html=1;exitX=1;exitY=0.5;exitDx=0;exitDy=0;strokeWidth=9;startArrow=none;startFill=0;endArrow=none;endFill=0;fillColor=#008a00;strokeColor=#005700;" edge="1" parent="1" source="69">
                    <mxGeometry relative="1" as="geometry">
                        <mxPoint x="1550" y="417.3333333333335" as="targetPoint"/>
                    </mxGeometry>
                </mxCell>
                <mxCell id="69" value="" style="ellipse;whiteSpace=wrap;html=1;aspect=fixed;fillColor=#008a00;fontColor=#ffffff;strokeColor=#005700;strokeWidth=9;" vertex="1" parent="1">
                    <mxGeometry x="1150" y="400" width="35" height="35" as="geometry"/>
                </mxCell>
                <mxCell id="77" style="edgeStyle=elbowEdgeStyle;html=1;exitX=0.5;exitY=0;exitDx=0;exitDy=0;strokeWidth=9;startArrow=classic;startFill=1;endArrow=none;endFill=0;fillColor=#d80073;strokeColor=#A50040;" edge="1" parent="1" source="73" target="75">
                    <mxGeometry relative="1" as="geometry"/>
                </mxCell>
                <mxCell id="73" value="" style="ellipse;whiteSpace=wrap;html=1;aspect=fixed;fillColor=#d80073;fontColor=#ffffff;strokeColor=#A50040;strokeWidth=9;" vertex="1" parent="1">
                    <mxGeometry x="1346.5" y="650" width="35" height="35" as="geometry"/>
                </mxCell>
                <mxCell id="76" value="" style="edgeStyle=elbowEdgeStyle;html=1;exitX=1;exitY=0.5;exitDx=0;exitDy=0;entryX=0.5;entryY=0;entryDx=0;entryDy=0;strokeWidth=9;startArrow=none;startFill=0;endArrow=none;endFill=1;fillColor=#008a00;strokeColor=#005700;" edge="1" parent="1" source="69" target="75">
                    <mxGeometry relative="1" as="geometry">
                        <mxPoint x="1185" y="417.5" as="sourcePoint"/>
                        <mxPoint x="1240.5" y="650" as="targetPoint"/>
                        <Array as="points">
                            <mxPoint x="1364" y="440"/>
                        </Array>
                    </mxGeometry>
                </mxCell>
                <mxCell id="75" value="&lt;div style=&quot;text-align: left; font-size: 17px;&quot;&gt;on opening PR : main.yml&lt;/div&gt;&lt;div style=&quot;text-align: left; font-size: 17px;&quot;&gt;on closing and merging PR: realease.yml&lt;/div&gt;" style="aspect=fixed;html=1;points=[];align=center;image;fontSize=17;image=img/lib/azure2/general/Workflow.svg;strokeWidth=9;" vertex="1" parent="1">
                    <mxGeometry x="1330" y="460" width="68" height="70" as="geometry"/>
                </mxCell>
                <mxCell id="80" value="0.1.0" style="dashed=0;html=1;fillColor=#F0F2F5;strokeColor=none;align=center;rounded=1;arcSize=10;fontColor=#596780;fontStyle=1;fontSize=17;shadow=0;strokeWidth=9;fontFamily=Helvetica;" vertex="1" parent="1">
                    <mxGeometry x="1334" y="700" width="60" height="20" as="geometry"/>
                </mxCell>
                <mxCell id="81" value="" style="edgeStyle=elbowEdgeStyle;html=1;strokeWidth=9;endArrow=classic;endFill=1;fillColor=#6a00ff;strokeColor=#3700CC;entryX=0.443;entryY=-0.019;entryDx=0;entryDy=0;entryPerimeter=0;" edge="1" parent="1" target="57">
                    <mxGeometry relative="1" as="geometry">
                        <mxPoint x="916" y="290" as="sourcePoint"/>
                        <mxPoint x="920" y="400" as="targetPoint"/>
                        <Array as="points">
                            <mxPoint x="916" y="350"/>
                        </Array>
                    </mxGeometry>
                </mxCell>
                <mxCell id="60" value="dev.yml" style="aspect=fixed;html=1;points=[];align=center;image;fontSize=17;image=img/lib/azure2/general/Workflow.svg;strokeWidth=9;" vertex="1" parent="1">
                    <mxGeometry x="883.5" y="220" width="68" height="70" as="geometry"/>
                </mxCell>
                <mxCell id="86" value="" style="edgeStyle=elbowEdgeStyle;html=1;exitX=1;exitY=0.5;exitDx=0;exitDy=0;entryX=0.5;entryY=0;entryDx=0;entryDy=0;strokeWidth=9;endArrow=none;endFill=1;fillColor=#6a00ff;strokeColor=#3700CC;" edge="1" parent="1" source="51" target="85">
                    <mxGeometry relative="1" as="geometry">
                        <mxPoint x="1025" y="97.5" as="sourcePoint"/>
                        <mxPoint x="1167.5" y="400" as="targetPoint"/>
                        <Array as="points">
                            <mxPoint x="1168" y="160"/>
                        </Array>
                    </mxGeometry>
                </mxCell>
                <mxCell id="85" value="dev.yml" style="aspect=fixed;html=1;points=[];align=center;image;fontSize=17;image=img/lib/azure2/general/Workflow.svg;strokeWidth=9;" vertex="1" parent="1">
                    <mxGeometry x="1133.5" y="220" width="68" height="70" as="geometry"/>
                </mxCell>
            </root>
        </mxGraphModel>
    </diagram>
</mxfile>